<svg version="1.1" xmlns="http://www.w3.org/2000/svg" viewBox="0 0 1300.5 556" width="1300.5" height="556">
  <!-- svg-source:excalidraw -->
  
  <defs>
    <style class="style-fonts">
      @font-face {
        font-family: "Virgil";
        src: url("https://excalidraw.com/Virgil.woff2");
      }
      @font-face {
        font-family: "Cascadia";
        src: url("https://excalidraw.com/Cascadia.woff2");
      }
    </style>
  </defs>
  <rect x="0" y="0" width="1300.5" height="556" fill="#ffffff"></rect><g stroke-linecap="round" transform="translate(418.5 340) rotate(0 134.5 64)"><path d="M0 0 C0 0, 0 0, 0 0 M0 0 C0 0, 0 0, 0 0 M0.11 7.08 C0.68 5.3, 2.52 3.12, 4.84 -0.19 M-0.07 6.25 C1.34 5, 2.4 3.35, 4.81 0 M-0.25 13.59 C3.64 9.68, 3.65 7.66, 10.59 -1.33 M0.42 11.47 C2.25 8.85, 5.32 5.48, 10.72 0.68 M-1.57 19.19 C4.15 13.9, 7.37 9.13, 16.93 1.7 M0.05 18.22 C6.17 12.12, 12.6 4.67, 14.78 0.67 M0.32 24.63 C8.84 14.55, 15.79 8.49, 22.43 0.35 M0.75 23.37 C5.73 17.49, 12.12 11.6, 21.65 -0.28 M1.25 31.1 C8.83 19.92, 19.59 7.06, 24.39 -1.43 M-0.54 31.01 C9.74 19.6, 20.94 5.97, 26.92 -0.64 M-1.24 36.58 C9.81 25.57, 17.75 16.59, 30.32 0.1 M-1.03 37.85 C9.45 25.72, 19.52 15.58, 31.27 0.65 M0.46 43.07 C8.01 32.87, 15.62 23.1, 37.12 0.8 M-0.72 42.61 C10.68 31.53, 20.18 20.22, 37.5 0.64 M-1.47 49.39 C11.9 35.39, 18.56 26.26, 42.79 -0.89 M-0.06 48.43 C15.66 30.38, 31.14 11.58, 43.07 -0.51 M0.71 54.49 C8.54 43.34, 19.44 31.47, 45.58 0.73 M-0.09 54.9 C10.83 42.37, 21.52 30.4, 47.15 0.78 M1.55 62.03 C11.75 46.15, 25.65 30.94, 51.72 1.06 M0.58 60.21 C18.02 41.12, 34.87 21.01, 53.11 0.7 M1.36 67.67 C19.29 45.29, 36.21 27.47, 58.58 1.86 M-0.32 67.18 C16.31 47.73, 32.6 28.97, 57.58 0.25 M0.76 71.88 C20.96 48.99, 41.37 24.68, 62.35 1.76 M-0.46 73.68 C19.84 48.91, 40.72 26.14, 63 0.46 M1.08 78.8 C17.99 59.82, 32.57 44.03, 69.26 0.85 M0.46 80.17 C21.54 56.68, 41.42 31.24, 68.59 0.65 M1.43 85.47 C22.14 57.74, 44.01 33.69, 75.24 -0.79 M-0.45 84.55 C22.97 59.79, 45.49 33.2, 74.95 -0.41 M-0.11 92.49 C25.83 62.31, 52.12 33.31, 81.12 1.51 M0.75 91.51 C25.52 61.22, 52.32 30.43, 79.04 -0.22 M-1.48 97.24 C18.57 76.49, 35.21 57.68, 84.31 -0.45 M-0.25 97.41 C31.01 61.72, 61.96 26.73, 84.74 0.6 M-0.16 104.76 C33.29 64.2, 65.82 26.17, 89.99 0.81 M-0.74 103.78 C22.3 76.55, 47.65 49.54, 89.88 0.61 M1.3 108.53 C25.76 78.12, 55.1 48.37, 94.8 -0.93 M-0.66 109.79 C18.79 86.95, 37.93 64.86, 94.74 0.67 M-1.69 113.79 C25.28 86.39, 49.59 57.32, 102.04 -1.12 M1.28 116.2 C38.33 71.56, 76.61 27.97, 101.12 0.26 M-0.58 122.09 C43.59 75.27, 82.51 26.85, 105.33 -1.78 M0.62 121.63 C27.06 91.35, 52.91 61.93, 106.87 0.63 M1.37 126.65 C29.71 94.38, 60.92 60.09, 111.81 1 M-0.96 128.45 C24.41 99.67, 48.51 72.26, 110.88 -0.94 M4.78 127.05 C47.19 79.45, 91.98 30.55, 117.18 0.38 M5.89 127.28 C42 87.35, 76.73 45.82, 117 0.78 M10.9 130.24 C33.39 101.68, 56.96 76.08, 120.16 -0.39 M9.8 128.53 C41.8 90.32, 73.3 54.59, 122.33 -0.53 M14.37 129.7 C53.87 85.15, 90.62 41.04, 126.96 -1.2 M15.26 127.27 C56.89 79.99, 99.13 30.82, 126.54 0.77 M19.16 130.05 C55.08 88.65, 87.35 52.28, 132.3 0.29 M21.43 128.51 C60.84 83.83, 101.12 39.54, 132.73 -0.84 M28.27 127.57 C59.71 86.76, 91.63 48.73, 136.64 -0.84 M25.67 127.36 C49.7 100.68, 71.17 75.77, 137.5 1.25 M32.9 128.86 C56.15 97.36, 80.52 67.56, 143.79 -0.19 M31.55 128.32 C70.17 83.46, 110.26 36.58, 142.42 -0.06 M38.17 127.28 C80.78 76.49, 125.81 23.56, 146.19 -1.47 M36.4 127.43 C66.34 94.07, 95.77 61.09, 148.13 -0.27 M44.24 129.62 C85.6 79.81, 124.47 34.86, 154.52 0.06 M41.35 127.56 C78.58 87.17, 114.15 45.75, 153.81 0.82 M48.08 128.6 C78.22 91.71, 108.98 56.02, 158.93 0.15 M48.81 128.55 C79 93.17, 108.8 57.88, 159.26 0.43 M52.61 129.46 C85.78 93.5, 117.21 53.29, 162.73 -1.89 M52.58 128.49 C74.21 102.37, 97.43 75.25, 164.39 -1.05 M60.38 126.48 C88.58 95.49, 118.34 57.42, 167.53 -0.59 M59.32 127.93 C87.01 93.77, 116 62.09, 169.29 -0.78 M62.79 129.62 C96.92 92.91, 126.56 55.15, 175.01 0.19 M62.6 129.07 C91.08 94.79, 119.93 61.83, 175.74 0.69 M69.77 129.01 C98.27 94.72, 128.89 58.28, 180 1.86 M68.44 127.99 C97.05 96.63, 123.79 64.91, 179.22 0.66 M74.94 129.55 C101.56 96.96, 131.9 62.45, 184.28 -0.34 M73.33 127.9 C106.24 90.92, 137.71 55.01, 186.49 0.53 M81.31 127.44 C124.75 77.91, 168.29 28.85, 189.69 1.2 M79.76 127.3 C103.68 99.64, 126.87 73.78, 191.6 0.97 M86.51 128.81 C109.17 101.23, 132.61 71.06, 195.83 -0.95 M84.26 127.26 C125.78 79.83, 167.19 31.14, 195.39 0.17 M92.4 126.18 C126.59 84.49, 165.24 41.69, 201.29 1.29 M90.93 127.6 C123.33 90.59, 155.3 50.78, 201.57 1.04 M94.33 129.14 C135.57 78.05, 178.54 33.9, 205.27 0.06 M95.47 128.12 C135.39 81.68, 175.9 36, 206.23 -0.55 M102.13 129.55 C131.85 94.11, 161.93 58.01, 212.84 -1.85 M100.06 127.57 C125.68 99.85, 150.56 72.51, 211.86 -0.56 M104.57 128.43 C134.64 97.73, 157.43 69.74, 216.56 1.53 M106.63 127.1 C145.24 83.2, 185.17 38.17, 216.9 -0.59 M111.88 128.75 C146.39 89.53, 178.1 51.1, 221.72 1.95 M111.26 128.79 C141.04 94.56, 172.3 58.58, 221.76 -0.6 M114.73 126.73 C155.47 86.01, 193.65 42.44, 228 1.46 M115.97 127.51 C143.93 97.74, 170.32 67.23, 228.36 -0.75 M123.43 128.42 C147.82 102.82, 168.76 73.7, 234.66 -0.98 M121.79 129.26 C152.78 92.19, 183.5 54.63, 234.14 -0.15 M127.65 128.24 C165.57 86.31, 203.21 43.24, 237.58 -0.24 M127.29 128.31 C166.38 82.31, 206.29 35.25, 238.99 0.09 M131.56 129.58 C167.94 87.12, 202.05 47.36, 245.73 1.84 M131.61 127.44 C166.93 91.17, 201.35 52.1, 244.47 0.35 M137.55 127.32 C165.52 96.78, 190.43 64, 247.62 1.24 M136.99 127.15 C162.62 99.08, 186.6 69.88, 248.22 0.96 M141.39 128.43 C189.68 79.25, 233.79 25.82, 254.34 -0.94 M143.79 127.91 C174.58 92.91, 204.35 56.56, 253.76 0.16 M147.95 126.49 C176.83 96.71, 200.77 63.83, 258.78 2.12 M149.04 127.34 C171.46 100.68, 194.78 73.59, 259.59 0.33 M154.37 126.31 C174.44 100.37, 198.6 75.61, 263.25 1.47 M153.46 128.47 C198.69 78.57, 240.6 27.95, 265.64 -0.79 M157.74 126.42 C190.99 91.94, 221.37 59.83, 270.09 1.77 M159.99 126.88 C190.91 91.76, 223.05 56.6, 269.71 0.85 M162.3 127.72 C199.54 86.39, 233.66 45.22, 270.66 6.82 M164.83 129.05 C199.81 86.14, 235.47 45.74, 269.37 5.88 M171.14 127.94 C192.26 106.11, 213.35 79.5, 268.39 14.55 M169.96 127.43 C193.8 99.67, 217.26 71.54, 268.77 12.14 M173.34 126.32 C207.74 90.88, 240.47 51.1, 269.32 18.7 M174.18 128.77 C194.87 106.38, 215.08 82.17, 270.05 18.95 M179.72 126.04 C211.23 93.15, 239.5 62.35, 269.89 24.08 M179.65 127.3 C204.98 99.39, 229.34 71.9, 269.02 24.11 M185.98 126.91 C208.55 99.15, 235.07 73.4, 267.96 29.86 M184.89 128.94 C206.15 101.66, 228.47 76.31, 268.95 31.81 M192.4 127.85 C207.7 108.52, 224.37 91.08, 269.3 38.44 M191.35 128.52 C208.48 108.08, 223.91 87.24, 268.97 37.15 M195.05 127.48 C219.18 106.51, 236.82 81.1, 268.02 42.21 M196.4 128.02 C219.35 100.06, 244.36 72.57, 269.31 43.58 M201.44 126.67 C219.34 107.61, 235.99 87.87, 271.66 48.89 M201.91 127.76 C223.18 104.22, 243.38 78.8, 270.22 49.85 M205.73 129.14 C233.02 97.65, 257.21 71.11, 270.32 56.09 M207.23 128.64 C230.41 101.58, 252.74 76.23, 269.97 55.29 M211.77 128.71 C230 105.07, 252.73 80.72, 269.73 60.59 M211.12 128.1 C223.12 114.44, 234.97 102.3, 269.76 62.71 M215.55 126.17 C228 117.4, 240.94 103.52, 271.69 69.22 M218 128.61 C235.95 106.54, 254.41 84.3, 269 67.9 M221.67 128.07 C231.11 117.46, 240.69 104.12, 268.56 75.6 M223.3 129.08 C241.25 108.08, 257.85 87.66, 269.65 74.13 M228.37 128.02 C243.97 111.31, 261.23 91.25, 270.28 79.5 M228.36 127.9 C235.93 118.27, 244.45 108.37, 270.07 80.04 M232.75 129.28 C240.61 117.04, 251.76 107.21, 271.57 87.38 M232.4 128.13 C245.21 113.35, 258.21 99.37, 270.07 85.95 M240.4 129.28 C247.35 117.06, 256.31 106.89, 270.95 91.72 M238.09 127.68 C244.19 120.4, 252.6 112.83, 268.76 91.76 M242.65 130.25 C249.49 118.9, 258.96 110.83, 269.2 99.82 M243.59 128.61 C251.98 117.7, 261.46 107.19, 268.9 97.45 M250.2 127.7 C252.73 120.95, 261.19 116.58, 269.86 104.6 M250.03 127.27 C252.77 122.6, 257.46 118.95, 270.18 104.53 M254.35 129.06 C257.96 123.15, 262.63 117.39, 268.22 109.94 M253.6 127.57 C257.65 123.74, 261.27 119.93, 270.12 111.04 M260.46 126.6 C262.59 126.53, 265.29 123.31, 268.84 117.06 M259.27 127.33 C261.95 125.27, 264.33 121.32, 269.99 116.69 M265.31 128.82 C265.95 126.44, 267.43 124.73, 269.32 122.84 M265.18 128.38 C265.62 127.3, 266.86 125.74, 269.69 122.64" stroke="#15aabf" stroke-width="0.5" fill="none"></path><path d="M0.97 -1.46 C107.66 0.07, 214.88 0.51, 268.5 1.49 M0.66 0.24 C68.92 -1.75, 136.69 -1.91, 269.45 -0.31 M267.29 1.96 C271.05 41.29, 268.27 86.8, 268 128.7 M269.39 0.69 C269 39.89, 268.55 82.16, 269.13 128.52 M267.82 127.93 C173.05 129.6, 81.3 129.78, 0.18 128.19 M269.26 127.63 C166.95 125.95, 63.65 125.99, 0.58 127.56 M0.38 126.42 C-0.84 84.39, 1.76 43.37, 1.34 -1.96 M0.11 128.56 C0.07 100.34, -0.16 73.28, 0.33 0.42" stroke="#000000" stroke-width="1" fill="none"></path></g><g transform="translate(433.5 366.5) rotate(0 119.5 37.5)"><text x="119.5" y="18" font-family="Virgil, Segoe UI Emoji" font-size="20px" fill="#000000" text-anchor="middle" style="white-space: pre;" direction="ltr">Continuous Delivery for </text><text x="119.5" y="43" font-family="Virgil, Segoe UI Emoji" font-size="20px" fill="#000000" text-anchor="middle" style="white-space: pre;" direction="ltr">Digital Goods and </text><text x="119.5" y="68" font-family="Virgil, Segoe UI Emoji" font-size="20px" fill="#000000" text-anchor="middle" style="white-space: pre;" direction="ltr">Downloads</text></g><g stroke-linecap="round" transform="translate(482.5 10) rotate(0 77 47.5)"><path d="M17.51 17.88 C17.51 17.88, 17.51 17.88, 17.51 17.88 M17.51 17.88 C17.51 17.88, 17.51 17.88, 17.51 17.88 M4.31 40.77 C9.6 34.4, 14.6 28.17, 27.2 12.5 M4.37 40.2 C9.29 31.59, 16.68 25.69, 26.06 14.45 M3.56 44.37 C12.26 34.17, 19.4 27.57, 33.95 8.45 M4.49 44.35 C14.92 33.03, 24.87 20.4, 34.96 9.52 M5.59 50.44 C14.94 38.74, 25.79 25.72, 44.75 5.01 M5.46 49.77 C13.38 40.29, 21.64 30.35, 44.24 6.44 M3.81 58.25 C23.64 36.29, 41.51 15.66, 51.02 5.89 M5.47 56.84 C14.79 44.32, 26.34 32.87, 50.11 5.52 M4.69 62.19 C14.59 49.34, 25.78 35.88, 55.04 5.91 M4.5 62.48 C17.88 47.38, 30.53 32.45, 55.9 5.52 M9.44 64.34 C23.71 46.79, 41.43 25.86, 62.55 2.96 M7.77 66.32 C25.95 44.35, 45.52 23.8, 61.56 4.21 M11.97 69.33 C25.24 52.2, 35.22 38.04, 67.85 3.72 M10.65 68.29 C21.32 53.9, 34.11 40.77, 66.58 3.8 M12.47 71.84 C31.17 53.33, 46.13 34.03, 72.82 3.02 M13.98 71.74 C33.64 49.11, 53.83 25.92, 73.85 2.93 M16.62 73.41 C37.53 50.5, 56.7 25.01, 78.12 0.4 M16.18 74.93 C40.25 46.93, 65.24 18.26, 78.71 2.87 M17.98 78.84 C39.89 53.31, 63.26 25.47, 86.2 3.39 M19.48 77.03 C39.09 52.83, 60.09 30.14, 84.81 1.5 M22.45 78.36 C47.19 53.03, 73.15 21.99, 89.82 2.61 M21.18 79.02 C37.1 61.75, 53.38 43.08, 88.46 2.01 M24.04 83.6 C48.58 53.55, 75.13 22.73, 95.06 3.03 M23.35 83.26 C42.79 62.05, 61.34 41.42, 92.52 4.9 M29.91 84.5 C51.67 58, 74.98 33.09, 98.52 6.35 M28.64 85.09 C48.85 61.5, 68.15 39.66, 97.38 3.9 M31.65 86.51 C46.88 67.1, 64.15 49.97, 104.38 5.02 M31.39 85.66 C49.85 66.09, 67.07 47.26, 102.92 4.75 M36.83 88.55 C58.17 61.8, 82.67 34.07, 104.84 8.32 M36.12 86.59 C51.64 70.53, 66.77 53.16, 106.76 6.88 M39.6 88.39 C56.7 69.11, 70.49 55.12, 111.88 5.9 M41.87 88.92 C65.84 60.48, 91.07 30.34, 110.9 7.63 M45.06 88.93 C61.31 67.07, 81.83 48.02, 114.4 9.61 M45.47 90.15 C59.59 73.44, 73.78 56.89, 114.65 9.74 M47.66 90.48 C78.17 58.53, 105.41 27.43, 121.27 9.32 M49.79 92.13 C75.41 61.41, 103.29 30.82, 120.57 9.77 M53.74 91.91 C68.98 76.22, 85.84 57.36, 121.85 11.98 M53.08 92.83 C79.02 60.17, 106.52 29.31, 122.85 10.92 M57.22 93.39 C74.88 70.27, 95.73 50.19, 128.98 12.39 M58.53 92.78 C83.16 62.31, 108.59 34.27, 127.04 14.35 M63.41 91.96 C89.58 63.57, 112.8 35.1, 130.18 18.33 M62.93 93.33 C85.53 67.24, 107.25 39.52, 129.24 16.05 M67.41 93.9 C90.81 67.88, 115.74 41.67, 132.7 19.57 M68.91 94.57 C82.91 74.98, 99.54 57.49, 133.88 18.44 M71.93 95.95 C92.81 73.73, 111.61 48.93, 138.69 20.47 M73.58 93.33 C88.29 75.66, 103.49 59.12, 136.76 20.66 M79.68 95.95 C100.88 68.25, 123.1 45.01, 140.87 22.51 M78.81 95.36 C103.46 67.41, 125.91 38.29, 139.62 21.78 M83.85 93.37 C104.91 70, 124.29 45.55, 142.38 24.12 M82.51 94.62 C103.49 72.06, 120.81 50.02, 143.76 24.22 M88.5 95.89 C108.29 70.76, 133.04 44.85, 145.22 26.99 M88.89 95.43 C103.28 78.09, 117.05 62.69, 147.37 26.8 M93.73 97.43 C113.46 72.46, 135.94 46.81, 150.64 30.66 M92.46 97.21 C111.92 74.91, 130.37 51.27, 149.73 30.89 M99.32 96.47 C118.51 73.56, 137.51 51.76, 151.58 34.76 M99.5 94.46 C117.9 74.29, 135.32 53.22, 150.53 35.38 M105.37 92.4 C117.47 77.23, 131.92 66.34, 154.46 40.63 M105.6 93.72 C115.89 81.75, 126.4 68.53, 153.49 37.95 M111.91 91.31 C119.67 81.34, 129.8 71.88, 156.33 41.38 M113.06 91.06 C124.01 77.83, 133.71 65.88, 154.32 43.75 M118.08 90.3 C133.66 73.82, 146.16 55.25, 157.22 47.95 M118.9 89 C132.74 74.03, 146.14 58.87, 156.96 47.14 M125.84 88.78 C136.96 75.8, 142.67 67.43, 155.36 57.93 M126.49 87.55 C131.84 80.5, 140.48 71.23, 153.66 57.15" stroke="#fab005" stroke-width="0.5" fill="none"></path><path d="M47.74 4.5 C57.5 1.04, 70.88 -0.22, 82.6 0.34 C94.32 0.9, 107.79 3.79, 118.06 7.85 C128.32 11.92, 138.24 18.57, 144.2 24.73 C150.16 30.9, 153.37 37.56, 153.81 44.84 C154.25 52.12, 151.96 61.63, 146.85 68.41 C141.74 75.19, 132.76 81.15, 123.16 85.53 C113.56 89.91, 100.91 93.6, 89.24 94.67 C77.57 95.74, 64.36 94.24, 53.13 91.95 C41.9 89.66, 30.11 86.11, 21.85 80.92 C13.6 75.74, 7.03 68.1, 3.59 60.84 C0.15 53.58, -1.11 44.53, 1.21 37.37 C3.53 30.21, 8.74 23.79, 17.51 17.88 C26.28 11.96, 46.34 4.45, 53.83 1.88 C61.32 -0.68, 61.91 1.64, 62.44 2.49 M69.88 1.21 C80.95 -0.13, 94.79 0.06, 105.76 2.66 C116.73 5.26, 128.18 11.37, 135.7 16.82 C143.23 22.27, 148.47 28.03, 150.89 35.37 C153.3 42.72, 153.24 53.52, 150.21 60.89 C147.18 68.27, 140.65 74.29, 132.7 79.63 C124.75 84.97, 113.71 90.2, 102.5 92.94 C91.29 95.68, 77.11 97.38, 65.44 96.07 C53.78 94.76, 41.85 89.8, 32.5 85.06 C23.15 80.31, 14.84 73.8, 9.34 67.59 C3.85 61.38, -0.54 55.05, -0.45 47.81 C-0.35 40.56, 4.18 30.53, 9.9 24.11 C15.63 17.69, 24.25 13.12, 33.91 9.26 C43.58 5.4, 62.06 2.49, 67.87 0.95 C73.68 -0.59, 68.47 -0.63, 68.78 0.04" stroke="#000000" stroke-width="1" fill="none"></path></g><g transform="translate(509 45) rotate(0 50.5 12.5)"><text x="50.5" y="18" font-family="Virgil, Segoe UI Emoji" font-size="20px" fill="#000000" text-anchor="middle" style="white-space: pre;" direction="ltr">S3 bucket</text></g><g transform="translate(573.5 181) rotate(0 102 12.5)"><text x="102" y="18" font-family="Virgil, Segoe UI Emoji" font-size="20px" fill="#000000" text-anchor="middle" style="white-space: pre;" direction="ltr">Create download link</text></g><g stroke-linecap="round"><g transform="translate(562.6550248732601 338.84805591961555) rotate(0 -0.336788204856191 -110.19580121637334)"><path d="M-1.14 1.03 C-1.22 -36.07, 0.02 -184.21, -0.11 -221.42 M0.47 0.52 C0.26 -35.89, -0.61 -183.03, -0.6 -220.04" stroke="#000000" stroke-width="1" fill="none"></path></g><g transform="translate(562.6550248732601 338.84805591961555) rotate(0 -0.336788204856191 -110.19580121637334)"><path d="M11.46 -190.45 C5.51 -202.9, 0.68 -211.49, -0.09 -219.5 M8.91 -192.37 C7.03 -199.31, 3.77 -207.95, -1.25 -219.16" stroke="#000000" stroke-width="1" fill="none"></path></g><g transform="translate(562.6550248732601 338.84805591961555) rotate(0 -0.336788204856191 -110.19580121637334)"><path d="M-9.06 -190.38 C-8.16 -202.67, -6.14 -211.28, -0.09 -219.5 M-11.62 -192.3 C-8.02 -199.11, -5.81 -207.77, -1.25 -219.16" stroke="#000000" stroke-width="1" fill="none"></path></g></g><mask></mask><g stroke-linecap="round" transform="translate(10 19) rotate(0 134.5 64)"><path d="M0 0 C0 0, 0 0, 0 0 M0 0 C0 0, 0 0, 0 0 M-0.51 6 C1.52 4.74, 2.02 4.2, 4.84 0.2 M-0.23 6.13 C1.24 5.09, 2.27 3.65, 4.98 0.2 M1.68 11.94 C2.03 7.66, 5.38 3.12, 10.94 -0.42 M0.26 12.82 C4.17 7.32, 7.93 4.03, 10.88 -0.02 M-0.95 17.29 C5.61 12.11, 8.77 5.45, 14.23 1.27 M0.31 18.77 C4.2 13.69, 6.27 10.24, 15.02 0.06 M-1.5 22.36 C4.66 16.89, 12.32 12.33, 22.38 1.52 M-0.55 23.74 C8.47 15.15, 14.36 8.78, 21.43 0.76 M-1.6 29.81 C10.37 19.63, 18.33 10.11, 27.13 0.22 M-0.92 29.77 C8.93 20.46, 18.49 10.61, 27.22 0.79 M0.89 36.88 C6.39 30.21, 14.43 19.29, 30.98 1.16 M-0.05 37.53 C8.12 28.12, 15.57 19.58, 32.43 -0.1 M0.3 43.62 C12.96 26.91, 27.49 14.39, 35.95 -0.05 M-0.8 41.79 C8.66 32.52, 16.42 22.69, 35.9 -0.03 M-0.83 49.13 C12.63 34.4, 23.87 19.5, 42.92 0.02 M-0.57 48.67 C17.11 29.66, 34.28 9.74, 43.5 -0.05 M-1.15 56.34 C11.35 39.51, 27.29 23.29, 48.29 0.61 M0.25 55.38 C12.91 41.19, 24.94 24.71, 47.88 0.9 M0.28 59.99 C13.51 43.51, 30.27 28.27, 51.31 0.76 M0.06 61.22 C14.61 45.06, 29.71 27.47, 52.73 -1.04 M-1.48 67.37 C16.59 46.09, 37.62 23.39, 58.77 -0.66 M-0.37 67.34 C14.12 51.22, 27.48 35.74, 58.49 0.39 M-1.17 74.6 C20.14 49.47, 42 27.56, 64.27 -0.98 M-0.85 73.98 C20.48 51.61, 38.18 28.77, 64.68 0.5 M0.71 78.86 C21.31 55.25, 39.09 32.57, 68.98 -1.72 M-0.76 79.73 C15.78 62.19, 29.68 44.55, 69.55 0.74 M0.44 83.11 C23.95 55.46, 49.11 26.2, 72.89 -0.58 M0.54 85.26 C20.72 62.87, 40.06 38.55, 74.42 -0.38 M-0.12 92.18 C21.84 64.75, 45.31 38.61, 79.54 0.56 M-0.52 92.35 C23.89 64.34, 46.71 37.4, 79.37 -0.24 M1.05 97.42 C33.48 58.36, 65.46 23.66, 83.29 -0.38 M-0.13 97.62 C25.26 67.34, 50.22 38.98, 85.52 -1.13 M-1.85 104.99 C20.69 78.45, 41.83 55.14, 90.07 -1.66 M-0.07 103.76 C23.12 76.88, 46.08 48.89, 90.77 0.76 M1.6 108.14 C25.17 79.29, 53.97 44.62, 96.59 -1.74 M-0.7 110.85 C27.16 79.21, 53.78 49.65, 96.05 0.31 M0.62 115.91 C31.74 79.5, 63.83 41.48, 99.16 0.74 M0.65 116.02 C27.1 84.68, 53.23 54.27, 101.08 0.53 M0.02 121.18 C41.2 76.34, 77.88 33.87, 104.88 -1.03 M-0.54 122.52 C25.37 93.95, 51.17 64.3, 106.59 -0.51 M-1.25 129.36 C43.08 79.99, 81.76 33.5, 112.43 1.92 M-0.43 127.43 C23.45 99.13, 46.55 71.52, 112.11 -0.62 M7.19 128.64 C46.32 80.85, 85.28 35.19, 114.63 -0.85 M5.45 128.88 C44.36 82.85, 82.9 39.42, 115.54 0.22 M11.45 128.38 C40.19 93.8, 70.84 58.16, 122.49 1.01 M9.55 127.46 C51.54 80.28, 94.45 31.84, 122.19 -0.89 M15.7 129.67 C46.6 89.36, 82.87 52.44, 125.25 -1.07 M15.58 127.75 C52.95 83.78, 92.64 40.38, 127.79 -0.46 M21.68 127.44 C62.1 84.71, 99.2 36.02, 132.94 -1.85 M21.02 127.49 C57.52 84.63, 95.76 41.23, 132.13 -0.96 M27.92 126.43 C50.94 101.96, 76.05 72.03, 137.19 1.71 M27.41 128.47 C61.67 87.44, 96.67 46.63, 136.76 0.27 M30.54 129.19 C77.71 77.55, 119.94 27.37, 142.41 -1.52 M32.05 127.59 C63.27 94.53, 91.46 60.32, 143.26 -0.04 M38.46 128.07 C63.52 96.74, 89.37 65.9, 146.57 -0.87 M38.27 127.84 C69.54 90.82, 101.12 55.53, 149.01 -0.04 M42.16 129.26 C71.71 98.68, 95.52 67.63, 152.49 0.14 M43.2 127.31 C73.26 93.02, 103.53 58.9, 153.4 0.19 M48.93 128.74 C84.98 87.8, 119.2 45.12, 160.5 -0.17 M47.99 128.16 C73.31 98.69, 100.34 68.59, 159.61 -0.33 M51.64 128.3 C93.24 82.24, 133.34 36.59, 163.79 -1.72 M53.56 127.69 C97.37 77.64, 141.78 25.6, 164.86 -0.48 M59.94 127.56 C86.96 94.57, 116.3 61.26, 169.08 1.44 M58.87 127.25 C88.78 90.96, 120.36 53.32, 170.14 -0.05 M65.08 127.95 C96.81 91.75, 128.2 53.3, 175.93 1.03 M62.68 127.31 C91.15 95.45, 119.51 64.39, 174.47 -0.75 M71.1 128.69 C106.64 87.14, 138.82 47.09, 181.43 -1.38 M69.75 128.4 C105.02 83.47, 142.71 41.06, 180.66 0.85 M75.6 126.84 C119.68 77.27, 164.49 26.33, 187.51 1.54 M74.64 128.2 C118.52 75.49, 162.35 25.27, 185.55 0.21 M81.01 129.26 C105.31 101.25, 124.08 75.23, 189.65 -1.01 M79.94 128.43 C102.85 102.29, 125.18 75.76, 189.75 -0.07 M83.31 128.63 C124.24 85.08, 160.05 40.65, 196.15 -2.05 M84.01 127.93 C121.03 84.02, 158.44 42.2, 195.92 0.68 M91.29 127.41 C119.94 93.32, 149.14 60.08, 200.86 -0.79 M91.25 127.62 C120.83 93.38, 152.27 59.1, 200.47 0.24 M95.31 129.94 C137.32 80.26, 181.66 28.66, 206.45 1.39 M95.86 127.55 C131.43 88.66, 166.77 48.29, 207.89 0.47 M101.88 127.05 C136.3 85.53, 171.08 43.67, 213.15 0.91 M101.37 128.56 C130.48 94.22, 159.55 58.99, 212.4 0.34 M105.71 128.41 C135.72 93.16, 164.76 58.59, 218.02 0.01 M105.75 127.61 C147.32 82.95, 185.29 36.61, 218.29 -1.11 M109.72 126.79 C136.03 100.24, 163.71 70.66, 223.65 -1.27 M110.41 129.02 C144.02 91.59, 175.54 54.58, 221.61 0.29 M115.64 126.7 C156.73 77.82, 197.71 30.97, 229.47 -1.06 M115.77 128.17 C161.14 75.35, 205.24 25.59, 228.44 -1.25 M120.75 128.53 C152.09 92.56, 186.9 56.06, 232.46 0.32 M121.05 128.57 C158.86 85.27, 196.99 41.79, 232.66 -0.37 M129.18 128.44 C162.5 86.54, 197.93 45.06, 237.76 1.09 M126.48 128.79 C167.94 82.85, 206.64 36.87, 237.51 1.1 M132.59 126.43 C163.92 93.82, 189.49 61.89, 242.69 -1.7 M133.09 127.52 C156.57 101.43, 180.73 73.22, 244.63 -0.58 M137.46 126.27 C160.63 99.72, 183.16 73.65, 248.8 0.08 M138.95 128.51 C170.11 92.14, 202.34 55.67, 249.11 0.23 M141.84 127.61 C181.07 84.77, 220.64 37.82, 256.45 -1.66 M142.87 127.66 C171.32 96.24, 199.57 64.88, 255.08 0.23 M146.58 125.84 C187.81 79.26, 231.18 32.06, 257.56 0.81 M148.74 127.9 C190.62 77.55, 233.56 26.69, 259.43 0.22 M152.11 128.21 C175.42 98.01, 198.45 71.96, 266.85 -0.95 M153.21 128.31 C187.01 87.65, 221.77 48.3, 266.1 0.09 M157.65 129.77 C200.14 81.78, 239.98 34.03, 269.97 1.18 M159.94 127.01 C183.11 98.92, 208.25 70.85, 269.13 0.61 M166.01 129.38 C202.81 83.51, 241.7 43.17, 268.09 6.89 M163.41 128.26 C189.49 97.52, 214.64 69, 270.33 7.36 M170.79 129.72 C194.53 98.04, 220.47 68.08, 270.48 13.89 M169.11 127.39 C199.36 95.15, 229.17 60.14, 268.83 12.27 M173.15 129.27 C206.89 91.04, 241.84 52.75, 268.6 16.97 M175.32 127.83 C196.85 104.38, 216.85 81.76, 270.17 19.59 M181.09 126.32 C205.51 96.43, 232.27 68.63, 269.52 26.76 M181.33 128.1 C204.38 102.41, 226.73 74.44, 268.7 25.7 M186.15 127 C218.5 90.75, 249.54 55.5, 270.43 30.42 M185.23 128.82 C216.98 92.3, 248.88 56.45, 269.12 30.8 M190.68 129.21 C210.74 109.07, 227.36 85.4, 270.71 35.93 M190.15 127.69 C215.71 98.68, 239.82 71.46, 269.56 36.19 M196.6 126.72 C218.48 99.49, 242.62 73.04, 267.98 44.35 M195.98 128.52 C225.02 96.66, 250.9 65.73, 268.57 43.53 M200.65 129.04 C217.53 108.46, 233.31 92.27, 268.66 50.54 M201.66 128.21 C216.71 109.2, 233.82 91.36, 270.74 48.56 M207.12 129.57 C221.01 109.47, 237.3 90.08, 268.72 55.18 M206.89 127.76 C222.82 108.57, 240.81 89.72, 270.43 56.1 M210.47 130.2 C231.31 103.18, 251.53 81.92, 268.31 61.49 M211.76 127.99 C229.19 109.28, 244.57 90.09, 269.39 61.85 M219.32 129.69 C234.99 107.01, 254.91 83.34, 271.76 67.53 M217.77 128.82 C228.95 114.33, 239.99 101.93, 269.76 67.56 M220.55 127.83 C234.75 112.88, 246.75 98.68, 267.6 74.42 M222.84 128.55 C239.72 107.71, 256.62 88.25, 269.14 74.37 M229.81 126.22 C239.33 114.13, 249.07 103.38, 271.2 79.06 M228.94 127.52 C243.58 109.63, 259.73 90.43, 270.15 80.47 M232.35 128.3 C242.93 115.17, 253.4 102.03, 269.47 86.2 M233.82 129.22 C243.34 116.68, 253.16 104.97, 270.17 86.17 M238.2 127.3 C250.39 115.93, 261.91 102.37, 267.5 93.14 M239.23 127.17 C244.94 119.55, 251.32 112.66, 269 91.63 M242.97 126.28 C248.97 122.16, 255.54 114.54, 268.54 97.99 M242.75 128.04 C252.55 117.4, 261.51 106.41, 269.8 98.06 M251.09 126.08 C254.16 121.97, 258.85 116.97, 270.08 103.93 M249.96 128.55 C256.89 119.95, 263.92 111.63, 270.19 105.08 M252.53 129.39 C260.1 124.83, 263.58 119.02, 270.41 111.93 M254.23 128.57 C259.29 123.5, 263.23 118.11, 269.83 110.35 M258.54 128.48 C263.33 122.21, 266.76 120.26, 269.47 116.73 M259.18 127.96 C264.42 123.88, 268.2 119.01, 270.04 116.62 M264.6 127.54 C266.61 126.04, 267.96 123.9, 270 123.27 M265.01 128.09 C266.95 126.23, 268.61 124.09, 269.62 123.16" stroke="#82c91e" stroke-width="0.5" fill="none"></path><path d="M-0.29 0.22 C80 2.17, 158.81 1.34, 270.16 1.11 M-0.43 -0.67 C104.41 -0.16, 208.64 -1.26, 268.7 0.54 M269.69 -0.34 C266.01 35.21, 266.7 74.68, 269.17 126.31 M269.45 0.5 C267.75 29.17, 269.01 57.52, 269.88 127.58 M270.36 129.19 C179.4 128.96, 88.33 128.66, 0.92 126.87 M268.51 128.6 C181.22 128.04, 94.54 128.62, 0.28 128.59 M-1.07 128.15 C0.07 100.62, -0.63 75.33, -1.64 1.78 M-0.55 128.74 C-0.63 77.41, 0 25.7, 0.93 -0.17" stroke="#000000" stroke-width="1" fill="none"></path></g><g transform="translate(19 45.5) rotate(0 125.5 37.5)"><text x="125.5" y="18" font-family="Virgil, Segoe UI Emoji" font-size="20px" fill="#000000" text-anchor="middle" style="white-space: pre;" direction="ltr">CI</text><text x="125.5" y="43" font-family="Virgil, Segoe UI Emoji" font-size="20px" fill="#000000" text-anchor="middle" style="white-space: pre;" direction="ltr">(GitHub Actions, Jenkins, </text><text x="125.5" y="68" font-family="Virgil, Segoe UI Emoji" font-size="20px" fill="#000000" text-anchor="middle" style="white-space: pre;" direction="ltr">...)</text></g><g stroke-linecap="round" transform="translate(378.5 264) rotate(0 355.5 141)"><path d="M0.58 -0.3 C193.29 -2.13, 384.98 -2.12, 711.3 0.47 M-0.02 0.17 C189.55 2.4, 380.01 2.14, 710.67 0.38 M711.72 0.9 C707.84 71.34, 709.01 142.78, 709.78 282.5 M711.42 -0.25 C712.86 87.88, 712.6 175.68, 711.73 281.47 M711.3 282.23 C541.62 279.44, 372.26 278.82, -0.6 281.86 M710.68 282.33 C557.88 279.68, 405.06 279.61, 0.27 282.33 M0.25 283.06 C0.57 205.93, 1.31 128.8, 0.16 1.09 M0.76 282.21 C1.36 206.51, 2.05 132.57, 0.05 -0.17" stroke="#000000" stroke-width="1" fill="none"></path></g><g transform="translate(942.5 283) rotate(0 51 12.5)"><text x="51" y="18" font-family="Virgil, Segoe UI Emoji" font-size="20px" fill="#000000" text-anchor="middle" style="white-space: pre;" direction="ltr">WordPress</text></g><g mask="url(#mask-Z6ytEFyzzNd24R0_ATq0s)" stroke-linecap="round"><g transform="translate(291.5 61.13754886732511) rotate(0 90.31095437242215 -1.4211186222664054)"><path d="M-0.57 -0.88 C29.46 -1.4, 150.87 -3.65, 181.19 -4.12 M1.33 1.27 C31.15 1.04, 150.55 -2.07, 180.48 -2.64" stroke="#000000" stroke-width="1" fill="none"></path></g><g transform="translate(291.5 61.13754886732511) rotate(0 90.31095437242215 -1.4211186222664054)"><path d="M151.06 9 C163.23 5.18, 174.79 -0.78, 181.52 -4.55 M152.41 8.63 C163.59 4.85, 172.24 0.09, 179.75 -1.98" stroke="#000000" stroke-width="1" fill="none"></path></g><g transform="translate(291.5 61.13754886732511) rotate(0 90.31095437242215 -1.4211186222664054)"><path d="M150.59 -11.52 C162.77 -7.39, 174.51 -5.42, 181.52 -4.55 M151.94 -11.89 C163.42 -8.13, 172.24 -5.35, 179.75 -1.98" stroke="#000000" stroke-width="1" fill="none"></path></g></g><mask id="mask-Z6ytEFyzzNd24R0_ATq0s"><rect x="0" y="0" fill="#fff" width="572.2487136450137" height="165.13372186219897"></rect><rect x="337.8743568225068" y="46.63946236988818" fill="#000" width="88" height="25" opacity="1"></rect></mask><g transform="translate(337.8743568225068 46.63946236988818) rotate(0 43.93659754991535 13.076967875170524)"><text x="44" y="18" font-family="Virgil, Segoe UI Emoji" font-size="20px" fill="#000000" text-anchor="middle" style="white-space: pre;" direction="ltr">1. Upload</text></g><g mask="url(#mask-tB6d6qYiK-bKk-u4p1dO3)" stroke-linecap="round"><g transform="translate(242.1877242535519 148.00000000000003) rotate(0 100.61928428312495 93.05349231408378)"><path d="M0.65 -0.89 C34.08 30.18, 166.11 154.55, 199.62 185.75 M-0.47 1.26 C33.39 32.54, 168.06 155.92, 201.71 186.99" stroke="#000000" stroke-width="1" fill="none"></path></g><g transform="translate(242.1877242535519 148.00000000000003) rotate(0 100.61928428312495 93.05349231408378)"><path d="M172.54 173.5 C179.04 179.37, 186.09 182.08, 201.98 187.55 M174.48 175.97 C181.55 177.96, 188.77 181.39, 202.22 186.06" stroke="#000000" stroke-width="1" fill="none"></path></g><g transform="translate(242.1877242535519 148.00000000000003) rotate(0 100.61928428312495 93.05349231408378)"><path d="M186.43 158.39 C189.83 167.63, 193.85 173.62, 201.98 187.55 M188.37 160.86 C191.7 167.14, 195.06 174.77, 202.22 186.06" stroke="#000000" stroke-width="1" fill="none"></path></g></g><mask id="mask-tB6d6qYiK-bKk-u4p1dO3"><rect x="0" y="0" fill="#fff" width="542.9906557896287" height="434.3212921182426"></rect><rect x="297.5891900215903" y="228.66064605912126" fill="#000" width="90" height="25" opacity="1"></rect></mask><g transform="translate(297.5891900215903 228.6606460591213) rotate(0 45.21781851508655 12.392846254962521)"><text x="45" y="18" font-family="Virgil, Segoe UI Emoji" font-size="20px" fill="#000000" text-anchor="middle" style="white-space: pre;" direction="ltr">2. Notify</text></g><g stroke-linecap="round" transform="translate(771 337) rotate(0 134.5 26.5)"><path d="M0 0 C0 0, 0 0, 0 0 M0 0 C0 0, 0 0, 0 0 M0.44 6.01 C0.95 4.53, 2.37 3.1, 5.76 -0.35 M-0.44 6.18 C0.41 4.98, 1.83 3.66, 4.94 0.38 M1.47 11.36 C1.74 10.36, 5.69 7.24, 11.97 -1.38 M-0.03 11.42 C4.54 7.32, 7.3 3.91, 10.76 -0.82 M1.63 18.4 C3.33 11.77, 9.36 8.86, 14.62 2.22 M0.23 18.51 C4.25 12.84, 10.36 6.13, 16.6 0.29 M-0.98 24.27 C6.13 15.75, 12.78 8.72, 19.58 -1.04 M-0.06 23.14 C6.19 17.12, 11.29 10.2, 20.75 -0.28 M1.59 31.87 C9.96 21.65, 19.09 7.83, 24.51 0.86 M0.63 29.82 C8.04 20.73, 16.17 11.3, 26.43 0.77 M1.09 38.8 C9.54 25.89, 15.6 15.88, 33.49 0.09 M-0.77 36.02 C10.66 25.38, 21.9 12.92, 31.9 0.02 M1.48 41.48 C11.33 29.96, 21.82 17.05, 38.2 0.64 M1.07 43.34 C8.81 34.08, 14.98 24.63, 36.18 0.15 M-1.07 47.41 C9.89 38.27, 19.66 22.47, 41.13 -1.69 M-1.07 48.7 C12.51 33.64, 26.48 17.45, 43.31 -1.08 M1.08 55.12 C9.65 44.24, 20.38 31.41, 48.31 0.71 M1.26 53.37 C13.38 38.88, 26.97 23.23, 48.15 0.22 M6.4 55.2 C18.76 36.44, 33.24 19.34, 52.61 -0.74 M6.6 54.94 C24.16 32.44, 44.07 11.32, 52.56 -1.01 M11.67 51.85 C23.1 42.35, 30.05 31.02, 58.44 1.21 M11.98 53.9 C27.63 34.48, 44.99 14.85, 57.18 0.3 M17.8 55.82 C27.85 37.62, 42.14 22.58, 65.04 1.59 M15.77 53.56 C25.71 43.07, 35.9 32.86, 63.7 0.28 M20.52 53.64 C35.49 37.62, 49.25 18.24, 67.2 -0.73 M21.43 54.3 C39.25 32.66, 56.41 13.59, 68.58 -0.82 M27.14 55.7 C37.31 41.17, 49.24 27.85, 74.53 0.92 M27.16 54.64 C37.83 42.62, 46.23 32.3, 75.32 0.34 M31.75 52.14 C46.62 36.02, 62.47 19.53, 80.2 1.04 M32.2 54.14 C44.79 41.54, 55.13 26.88, 80.18 -0.82 M36.03 52.97 C58.54 31.55, 73.84 10.61, 84.2 -2.08 M38.58 54.49 C54.96 34.58, 70.32 14.45, 84.48 0.23 M44.46 51.97 C59.23 37.03, 72.77 21.48, 90.06 1.66 M43.36 54.46 C53.33 42.37, 63.87 30.53, 90.29 0.1 M49.09 54.77 C63.88 35.9, 78.24 18.84, 96.14 -1.8 M48.37 54.91 C56.85 43.77, 67.49 31.9, 94.75 0.5 M52.77 54.79 C66.47 40, 74.65 26.59, 100.37 1.28 M54.47 53.81 C68.55 38.59, 82.32 21.93, 99.74 -0.77 M57.92 53.26 C74.9 36.7, 88.64 20.54, 107.47 0.42 M59.33 53.21 C68.19 41.15, 78.88 29.73, 106.2 -0.8 M65.77 55.23 C77.2 38.45, 89.92 22.12, 109.75 1.02 M65.61 54.26 C77.63 39.69, 88.03 25.94, 111.84 -0.6 M69.13 53.56 C77.63 40.35, 91.04 30.85, 117.65 0.97 M68.79 54.2 C80.12 40.77, 93.2 27.67, 116.75 0.65 M75.59 52.93 C89.38 41.41, 101.23 25.6, 123.81 -0.97 M75.35 53.36 C92.83 32.36, 111.22 11.13, 122.41 0.89 M80.33 53.82 C90.61 43.01, 100.18 28.58, 127.09 -1.01 M80.57 54.17 C92.48 42.01, 103.44 28.01, 126.77 0.4 M85.33 52.53 C96.66 38.52, 110.56 25.77, 131.16 -1.55 M86.75 54.16 C102.21 35.99, 119.66 15.6, 131.78 -0.48 M92.13 53.18 C106.01 35.28, 124.83 15.67, 137.25 0.85 M90.98 52.94 C108.04 34.29, 124.06 15.62, 137.19 -0.26 M97.1 51.68 C108.22 39.9, 116.4 27.91, 143.4 -0.57 M97.39 53.21 C111.68 35.32, 128.58 17.31, 142.77 0.6 M100.14 55.78 C112.19 39.02, 125.9 27.85, 149.23 1.22 M100.86 53.8 C112.99 39.67, 126.1 23.93, 148.08 0.74 M108 53.02 C120.88 37.22, 136.59 17.42, 155.15 -0.91 M107.33 52.58 C122.97 36.04, 137.39 18.61, 154.69 -1.09 M110.97 54.76 C124.13 42.96, 133.18 28.92, 159.15 -0.27 M111.52 53.56 C120.29 42.6, 131.02 33.27, 157.99 0.95 M117.5 52.93 C135.16 31.98, 152.53 11.99, 164.02 -0.41 M116.5 54.57 C125.95 43.03, 135.44 31.53, 165.37 0.78 M122.23 52.26 C131.52 42.44, 142.82 32, 170.12 1.01 M122.77 54.53 C138.95 36.06, 153.99 17.23, 170.02 -0.57 M126.02 54.56 C143.36 37.51, 159 19.46, 174.62 0.07 M127.27 54.73 C138.78 42.17, 150.28 28.81, 175.13 0 M134.53 55.42 C145.88 39.79, 155.21 26.57, 180.24 -1.29 M132.95 54.51 C143.8 41.35, 153.7 30.5, 179.71 0.73 M139 52.29 C148.36 43.8, 157.82 29.88, 186.54 0.66 M138.56 54.36 C149.23 43.32, 158.48 30.87, 184.78 -0.11 M143.47 52.38 C160.1 35.47, 178.37 13.51, 190.63 -0.53 M144.87 52.81 C158.28 37.78, 171.74 20.9, 191.15 0.9 M149.56 52.77 C164.22 39.29, 176.12 21.29, 194.41 -1.5 M148.44 53.52 C164.31 37.38, 178.11 20.42, 195.66 -0.77 M155.67 52.29 C169.21 39.28, 182.19 21.83, 201.39 -1.07 M153.85 54.23 C164.48 41.94, 176.72 29.08, 200.91 -0.51 M157.8 55.63 C176.79 32.21, 192.36 14.57, 207.84 -0.26 M159.48 53.77 C171.06 41.54, 180.07 30.89, 207.56 0.35 M164.74 53.28 C182.58 35.27, 201.17 11.94, 211.63 1.74 M165.71 53.07 C183.66 31.99, 201.38 13.05, 212.05 -0.42 M170.85 53.53 C183.4 37.79, 198.77 18.85, 219.43 -0.48 M170.74 54.16 C179.64 41.78, 190.34 30.65, 216.83 -0.96 M175.28 54.49 C185.12 41.06, 198.43 30.03, 223.47 1.52 M176.78 53.14 C190.78 37.34, 204.57 21.63, 222.15 -0.3 M182.79 52.1 C193.55 36.55, 207.6 22.97, 228.79 -2.03 M181.81 53.24 C193.74 38.47, 206.6 24.01, 228.28 0.61 M186.91 52.07 C199.27 38.74, 214.18 21.19, 234 0.93 M185.86 53.75 C197.83 40.03, 211.08 26.08, 233.27 -0.09 M190.75 53.97 C202.61 41.88, 213.7 28.97, 237.87 1 M190.74 53.07 C209.74 33.64, 226.65 13.96, 238.56 0.61 M198.23 55.15 C209.13 37.19, 223.38 21.51, 243.35 -0.4 M196.29 53.69 C210.61 38.15, 223.87 25.12, 243.99 -0.22 M202.84 54.8 C210.18 40.88, 223.02 29.36, 249.61 1.23 M202.12 53.21 C211.11 41.94, 222.38 30.71, 248.83 -0.15 M206.86 53.88 C226.76 33.96, 241.9 11.6, 254.62 -1.83 M207.88 53.28 C224.66 35.28, 239.34 17.61, 255.38 0.34 M214.15 55.21 C226.83 38.19, 242.25 20.08, 259.94 -1.44 M213 54.7 C224.09 40.9, 234.82 27.83, 258.73 0.88 M217.39 55.4 C237.33 33.18, 254.42 13.45, 265.92 -1.71 M218.95 54.32 C235.58 32.48, 253.6 12.6, 265 0.16 M222.81 52.86 C235.16 41.93, 245.86 27.3, 267.83 1.88 M222.97 54.11 C235.92 38.87, 247.74 24.57, 268.43 1.76 M229.45 51.84 C239.99 41.3, 253.52 23.97, 268.46 5.39 M228.33 54.11 C241.16 40.05, 252.91 26.99, 269.03 6.09 M233.92 54.38 C250.36 37.64, 263.37 20.16, 270.69 14.9 M234.09 53.49 C242.88 43.27, 252.76 33.64, 270.08 13.87 M240.99 53.1 C249.33 42.45, 256.04 36.14, 271.65 17.59 M238.67 54.22 C248.38 44.54, 257.39 34.48, 269.34 18.16 M243.6 55.41 C250.18 45.99, 254.91 43.64, 267.99 24.45 M244.93 54.39 C252.22 44.77, 259.26 36.61, 269.32 24.18 M250.92 55.82 C257.23 49.25, 260.82 39.85, 270.54 31.01 M249.12 53.43 C256.23 45.47, 263.81 39.15, 268.94 30.92 M254.94 52.6 C259.9 46.52, 267 40.96, 268.32 37.65 M254.56 53.86 C258.76 48.66, 263.8 45.65, 270.49 36.5 M259.56 55.35 C264.61 49.93, 266.06 46.65, 268.86 42.31 M261.04 54.25 C262.35 52.53, 263.68 49.84, 268.97 43.43 M266.04 54.26 C267.97 51.81, 269.04 50.24, 270.36 49.62 M266.18 53.93 C267.23 52.25, 268.52 50.57, 270.09 49.46" stroke="#15aabf" stroke-width="0.5" fill="none"></path><path d="M0.29 1.4 C95.89 -1.11, 190.9 -2.36, 270.08 -0.42 M-0.71 0.49 C71.86 -0.68, 142.28 -0.25, 269.08 -0.03 M268.81 1.09 C270.77 19.08, 267.39 41.8, 267.94 53.35 M269.55 -0.52 C268.41 16.38, 269.38 34.46, 268.16 53.24 M269.46 52.67 C161.18 52.44, 54.65 52.65, -0.94 53.53 M268.28 53.44 C195.7 52.3, 121.67 51.54, -0.56 52.53 M0.49 52.95 C-0.77 31.99, 1.42 12.83, 0.45 0.43 M0.14 52.44 C-0.38 35.68, 0.54 18.67, -0.46 -0.1" stroke="#000000" stroke-width="1" fill="none"></path></g><g transform="translate(789 351) rotate(0 116.5 12.5)"><text x="116.5" y="18" font-family="Virgil, Segoe UI Emoji" font-size="20px" fill="#000000" text-anchor="middle" style="white-space: pre;" direction="ltr">Easy Digital Downloads</text></g><g stroke-linecap="round" transform="translate(776 420.5) rotate(0 134.5 26.5)"><path d="M0 0 C0 0, 0 0, 0 0 M0 0 C0 0, 0 0, 0 0 M-0.93 5.76 C2.18 3.6, 3.87 0.97, 5.6 0.4 M-0.06 6.62 C0.57 4.96, 2.1 3.89, 4.65 0.2 M0.31 11.54 C3.37 10.13, 7.4 6.42, 9.54 -1.2 M0.85 11.29 C3.88 7.57, 6.17 3.99, 10.38 -0.24 M0.84 18.66 C4.44 14.31, 8.05 6.88, 14.36 1.24 M-0.57 19.17 C2.63 15.8, 5.6 11.86, 15 -0.35 M-1.67 23.01 C6.71 19.19, 9.26 15.27, 20.28 0.47 M0.85 23.09 C5.4 18.03, 11.3 11.82, 22.23 -0.45 M1.17 30.79 C6.53 22.8, 13.97 11.3, 25.1 -0.19 M0.47 29.9 C7.69 21.74, 15.16 12.68, 26.84 1.29 M-2.13 38.84 C7.99 25.22, 15.44 15.73, 33.65 -1.34 M-1.16 37.45 C7.64 29.18, 14.27 21.74, 32.72 -0.19 M1.14 42.84 C10.64 31.76, 18.66 21.29, 38.36 0.29 M0.93 41.69 C11.16 28.26, 22.94 16.63, 36.49 0.18 M-0.1 49.53 C13.37 34.06, 26.55 19.77, 42.46 -0.27 M-0.87 47.95 C10.67 37.06, 19.6 26.72, 41.86 0.54 M2.54 52.7 C17.57 36.92, 31.02 19.35, 48.75 -0.15 M1.54 53.86 C9.6 42.19, 20.31 32.42, 47.27 1.13 M4.28 54.18 C16.69 43.93, 26.26 28.75, 54.84 -0.69 M6.3 53.38 C23.83 34.81, 40.39 13.86, 52.22 -0.71 M10.65 53.43 C23.77 43.4, 33.8 31.02, 57.89 0.61 M12.06 53.38 C24.25 40.32, 37.31 26.44, 58.99 0.45 M15.31 52.44 C26.86 43.96, 35.28 30.94, 61.88 -1.95 M16.84 53.55 C33.98 32.54, 50.85 13.44, 62.87 -0.88 M22.74 53.01 C40.23 30.9, 59.26 11.03, 70.37 1.73 M21.71 54.64 C38.77 34.16, 55.7 14.58, 67.97 -0.07 M29 52.74 C38.14 42.06, 50.07 27.75, 73.71 1.57 M26.5 53.54 C37.14 42.32, 46.54 32.35, 75.39 0.58 M32.93 53.07 C50.26 34.07, 65.4 14.6, 77.82 -0.67 M32.07 54.19 C45.5 37.57, 60.53 23.42, 79.03 0.88 M36.96 55.22 C56.46 34.61, 75.77 11.98, 83.43 0.54 M38.08 54.66 C54 37.09, 68.61 17.66, 85.84 -0.27 M42.32 52.25 C56.86 36.57, 72.2 19.14, 90.83 -1.44 M43.2 54.08 C54.41 41.84, 64.74 30.13, 89.51 0.11 M49.8 53.02 C66.54 36.85, 79.75 18.27, 95.14 -1.42 M48.91 53.71 C66.4 33.73, 83.18 12.58, 94.79 0.11 M55.02 54.19 C67.3 39.79, 80.93 23.82, 99.03 1.57 M53.69 53.87 C65.21 40.37, 76.73 26.72, 101.2 -0.08 M57.14 52.27 C71.76 38.19, 85.33 23.01, 107.97 0.33 M58.81 53 C76.04 34.77, 90.78 16.96, 105.31 -1.2 M66.14 55.54 C82.18 36.14, 96.49 16.16, 111.01 -0.52 M64.58 52.61 C74.37 42.77, 83.97 30.8, 110.45 0.12 M71.57 52.12 C80.31 42.11, 89.36 28.95, 115.35 0.2 M70.1 54.33 C84.45 36.71, 100.64 18.69, 116.32 1.09 M73.79 53.93 C86.4 39.69, 95.82 28.08, 122.38 0.45 M75.47 52.86 C91.93 33.75, 107.83 16.32, 122.05 0.01 M80.72 52.71 C96.86 33.9, 117.35 14.72, 127.72 -0.7 M79.6 53.01 C91.73 41.45, 103.45 27.88, 127.2 -0.47 M87.08 52.01 C102.13 34.17, 119.38 14.35, 131.77 1.61 M86.41 52.67 C95.78 41.54, 105.22 31.58, 133.35 0.39 M91.18 55.18 C104.8 40.46, 118.02 21.36, 136.52 2.05 M90.62 53.84 C105.52 37.7, 121.12 19.38, 137.86 0.44 M98.12 53.41 C112.95 36.55, 126.1 19.15, 144.77 1.1 M95.98 53.59 C110.4 38.11, 121.95 23.7, 144.15 -0.42 M100.57 53.67 C115.65 35.69, 132.03 19.13, 148.87 1.08 M101 53.12 C116.22 37.77, 129.57 21.5, 147.38 0.85 M106.02 54.77 C126.9 33.45, 141.68 13.49, 154 -1.93 M107.25 52.69 C117.87 40.98, 127.77 28.94, 154.78 -0.63 M113.5 55.33 C124.42 40.64, 133.89 26.93, 158.88 2.02 M113.05 54.67 C129.66 34.91, 146.46 14.76, 159.32 -0.66 M116.23 54.5 C134.32 35.44, 148.66 17.54, 163.06 0.65 M117.13 53.27 C129.75 40.24, 141.74 26.41, 164.05 -0.93 M121.58 52.28 C137.57 34.92, 154.56 18.07, 167.64 -0.48 M123.59 53.78 C138.27 34.59, 156.41 15.29, 169.76 -0.05 M127.17 53.73 C143.06 39.05, 159.46 18.11, 174.56 -2.01 M127 53.87 C143.56 37.49, 158.78 18.71, 175.29 -0.52 M135.41 53.68 C149.87 36.59, 163.63 17.84, 179.29 1.23 M133.94 53.27 C147.85 36.91, 162.36 19.81, 179.26 0.24 M138.3 52.83 C157.89 33.17, 173.09 13.53, 186.12 0.22 M138.78 54.81 C153.28 35.66, 168.29 17.95, 186.32 -1.09 M144.61 53.66 C160.58 36.15, 176.19 19.82, 188.91 -0.23 M143.92 53.43 C153.94 41.45, 164.73 29.18, 190.9 -0.73 M148.72 52.47 C168.13 33.02, 185.81 12.95, 194.34 -1.51 M149.55 53.14 C164.73 36.65, 180.45 17.29, 195.46 -0.83 M153.79 55.37 C174.03 31.94, 189.4 13.45, 202.63 0.8 M153.86 54.07 C165.46 40.55, 176.24 29.01, 202.24 -0.42 M160.55 54.28 C174.91 38.93, 188.05 23.89, 206.83 0.93 M158.86 53.42 C176.5 35.76, 191.87 17.99, 207.53 -0.45 M166.55 54.94 C179.92 35.1, 194.8 21.07, 213.55 -1.05 M164.56 54.49 C184.16 31.89, 202.14 12.91, 211.36 -0.77 M170.89 52.9 C183.19 40.29, 193.85 25.35, 218.21 0.7 M170.79 53.69 C185.21 37.82, 198.81 21.52, 217.84 -1.13 M177.5 53.51 C190.85 40.17, 202.47 22.95, 221.78 1.86 M175.36 53.5 C192.11 34.99, 207.05 18.46, 222.83 -0.21 M179.86 55.97 C195.2 37.54, 211.45 19.51, 230.07 -0.08 M181.91 53.52 C197.72 35.34, 212.88 16.94, 228.23 -0.58 M188.26 53.23 C202.87 31.76, 224.28 10.8, 234.44 -1.82 M186.07 53.41 C198.19 38.85, 210 25.25, 233.71 0.29 M190.56 52.12 C209.1 33.23, 225.71 15.14, 238.38 -1.51 M191.29 53.95 C205.13 38.14, 217.89 24.37, 238.34 -0.23 M195.43 53.24 C208.9 39.5, 223.34 26.81, 245.62 1.54 M197.02 54.01 C211.46 38.62, 223.88 21.66, 243.58 -0.69 M201.1 55.01 C216.37 36.05, 233.91 15.52, 248.06 -0.95 M202.5 53.55 C219.04 35.46, 235.23 15.76, 248.32 -0.28 M206.62 53.67 C224.44 32.55, 240.94 15.13, 256.44 -1.42 M207.02 52.62 C222.2 37.75, 237.14 21.82, 254.51 0.88 M212.6 55.28 C222.49 41.55, 232.97 32.89, 261.05 -0.51 M213.62 54.37 C227.33 37.06, 242.93 20.5, 258.84 0.81 M220.45 51.68 C227.21 43.43, 236.34 30.22, 267.01 0.95 M219.39 54.04 C233.13 36.48, 247.69 18.57, 265.06 0.57 M225.15 52.55 C233.77 43.62, 244.37 32.41, 270.32 2.71 M223.2 53.96 C235.71 40.54, 247.18 26.96, 269.04 0.12 M230.51 53.39 C241.96 37.62, 254.75 21.49, 270.53 8.08 M229.95 52.57 C241.97 37.71, 256.03 20.48, 270.41 6.23 M233.88 55.48 C242.67 44.67, 249.53 36.64, 271.28 14.41 M234.33 53.38 C241.88 44.38, 249.86 33.38, 270.08 14.01 M240.77 54.7 C248.1 43.26, 262.09 29.29, 270.43 20.1 M238.38 54.77 C248.87 44.41, 258.35 32.71, 269.43 18.89 M244.89 53.71 C253.16 42.75, 261.96 33.31, 269.4 23.41 M244.57 53.18 C251.09 46.8, 257.9 38.03, 270.61 24.46 M248.15 54.25 C255.05 45.03, 260.89 40.45, 267.75 31.12 M248.79 54.44 C254.59 49.03, 260.03 42.38, 270.14 32.09 M255.28 53.86 C259.12 48.88, 261.51 45.1, 271.26 38.85 M255.99 53.42 C258.83 48.22, 264.44 43.99, 269.95 36.28 M259.13 53.98 C264.44 49.09, 268.28 45.07, 268.41 43.35 M260.02 53.42 C261.98 51.66, 264.27 49.11, 270.15 43.77 M265.77 54.27 C267.68 52.83, 268.01 50.88, 270.12 49.68 M265.76 53.68 C267 52.9, 268.16 51.35, 269.95 49.35" stroke="#15aabf" stroke-width="0.5" fill="none"></path><path d="M0.76 -0.68 C71.33 -0.24, 144.74 1.12, 270.12 -1.15 M0.07 0.22 C69.82 -1.95, 140.25 -2.36, 269.1 0.41 M269.24 0.06 C270.89 20.55, 270.45 39.54, 269.45 53.29 M269.19 -0.96 C268.29 15.57, 269.97 31.6, 269.85 53.27 M268.83 52.31 C202.79 50.73, 133.7 50.34, -0.44 54.32 M268.39 53.19 C211.56 51.26, 152.41 51.36, -0.71 53.39 M-1.88 51.23 C-0.94 42.01, 0.02 30.85, -1.35 1.94 M0.24 52.85 C0.62 37.67, 0.21 23.29, -0.42 0.01" stroke="#000000" stroke-width="1" fill="none"></path></g><g transform="translate(824.5 434.5) rotate(0 86 12.5)"><text x="86" y="18" font-family="Virgil, Segoe UI Emoji" font-size="20px" fill="#000000" text-anchor="middle" style="white-space: pre;" direction="ltr">Download Monitor</text></g><g stroke-linecap="round"><g transform="translate(689.5 369) rotate(0 42.57014605220877 -0.6428084254264661)"><path d="M1.03 0.86 C15.14 0.38, 70.88 -1.84, 85.03 -2.15 M0.11 0.27 C14.04 -0.17, 69.84 -1.22, 84.1 -1.21" stroke="#000000" stroke-width="1" fill="none"></path></g></g><mask></mask><g stroke-linecap="round"><g transform="translate(686.9298539477911 445.64280842542644) rotate(0 42.75916461684744 -0.442125542417358)"><path d="M0.27 0.18 C14.12 -0.2, 70.18 -0.81, 84.25 -1.17 M-1.05 -0.77 C13.08 -0.45, 72.43 0.35, 86.57 0.28" stroke="#000000" stroke-width="1" fill="none"></path></g></g><mask></mask><g stroke-linecap="round" transform="translate(1182.5 370) rotate(0 54 42.5)"><path d="M0.3 42.66 C0.3 42.66, 0.3 42.66, 0.3 42.66 M0.3 42.66 C0.3 42.66, 0.3 42.66, 0.3 42.66 M4.82 44.07 C6.61 39.19, 10.49 36.2, 17.58 30.65 M3.18 44.97 C7.11 38.58, 13.82 34.35, 17.16 30.46 M6.9 46.83 C15.15 38.9, 18.38 32.24, 31.39 18.86 M6.99 48.59 C12.5 40.71, 19.87 32.12, 32.96 16.39 M7.66 51.22 C19.94 33.9, 33.9 20.81, 50.06 5.91 M8.89 50.28 C19.57 39.28, 31.84 25.56, 49.09 5.36 M14.51 53.77 C20.89 41.76, 31 30.33, 55.73 -0.15 M12.59 52.95 C22.8 41.03, 31.11 29.95, 56.55 1.75 M15.66 55.48 C32.54 38.01, 47.56 21.1, 59.23 3.32 M15.91 55.22 C27.34 41.61, 39.62 27.39, 59.29 4.79 M18.15 59.26 C33.16 40.86, 49.18 21.33, 62.81 8.39 M19.77 57.8 C30.4 45.39, 42.39 32.07, 63.98 6.35 M23.15 58.96 C38.22 38.85, 57.74 23.21, 64.96 8.6 M22.49 59.61 C36.02 45.91, 48.13 30.36, 65.8 9.97 M25.29 63.89 C43.52 42.24, 57.12 24.29, 71.64 10.94 M26.17 61.19 C41.91 43.45, 59.26 24.44, 70.68 11.87 M28.06 63.78 C45.33 47.05, 58.45 28.35, 71.63 12.83 M29 64.77 C38.93 53.9, 48.97 42.17, 73.67 14.92 M33.74 66.3 C40.61 56.61, 51.19 42.13, 74.54 15.63 M32.26 66.7 C42.19 55.51, 53.8 42.44, 75.88 17.14 M34.74 70.05 C48.69 52.92, 63.55 35.28, 78.08 17.63 M34.66 69.52 C48.42 56.26, 60.76 40.05, 78.88 19.72 M36.97 73.08 C49.68 57.4, 63.56 39.06, 82.81 23.31 M38.66 71.4 C53.65 53.75, 68.71 36.65, 82.31 21.23 M43.14 73.87 C58.06 53.35, 75.38 36.14, 86.09 25.34 M40.86 74.19 C53.6 59.74, 67.29 45.21, 84.9 24.68 M42.79 76.84 C58.08 59.59, 72.55 44.99, 88.09 26.59 M44.88 77.87 C55.8 63.48, 66.79 51.93, 87.5 26.47 M47.58 81.35 C61.36 65.12, 72.49 54.42, 90.47 29.33 M47.82 80.59 C61.52 63.73, 76.03 47.98, 90.69 28.63 M50.66 82.19 C62.36 66.21, 76.45 52.84, 95.69 32.32 M50.52 82.16 C68.96 62.77, 84.06 44, 95.18 30.9 M54.02 82.6 C65.31 70.58, 78.64 53.38, 97.03 36.22 M53.93 84.04 C67.61 69.16, 80.91 53.38, 96.74 35.14 M58.42 87.75 C67.19 75.99, 79.67 61.57, 101.92 36.63 M58.08 87.86 C74.23 67.61, 91.05 49.7, 100.58 37.37 M72.56 73.89 C87.08 62.17, 96.68 49.26, 102.59 41.35 M74.2 73.52 C80.73 65.64, 87.58 56.71, 103.01 40.03 M91.06 60.42 C95.16 52.04, 101.35 46.22, 106.09 40.37 M91.73 60.32 C97.31 53.89, 102.37 46.78, 106.42 42.94" stroke="#e64980" stroke-width="0.5" fill="none"></path><path d="M54.57 -1.73 C69.57 11.26, 83.17 24.16, 107.69 44.41 M55.87 -0.74 C72.09 14.02, 88.7 28.28, 107.49 43.4 M107.81 44.15 C95.51 54.01, 85.6 61.72, 54.51 83.56 M107.75 42.93 C95.6 52.85, 81.52 63.91, 55.79 84.98 M56.25 86.99 C40.02 74.09, 26.59 63.75, 0.77 42.7 M54.86 85.36 C33.56 70.01, 12.16 51.99, 0 43.24 M-1.45 44.14 C15.19 29.61, 35.25 17.76, 54.46 0.88 M0.78 43.19 C20.71 27.33, 38.99 12.44, 54.52 -0.5" stroke="#000000" stroke-width="1" fill="none"></path></g><g transform="translate(1190.5 400) rotate(0 46 12.5)"><text x="46" y="18" font-family="Virgil, Segoe UI Emoji" font-size="20px" fill="#000000" text-anchor="middle" style="white-space: pre;" direction="ltr">Customer</text></g><g stroke-linecap="round"><g transform="translate(1179.5 416) rotate(0 -43.23168890438046 1.9670662480173746)"><path d="M-0.99 -0.65 C-15.26 0.06, -71.98 2.64, -86.13 3.37 M0.69 1.63 C-13.7 2.55, -72.6 4.03, -87.15 4.58" stroke="#000000" stroke-width="1" fill="none"></path></g><g transform="translate(1179.5 416) rotate(0 -43.23168890438046 1.9670662480173746)"><path d="M-60.37 -6.77 C-67.48 -3.8, -73.92 -1.69, -85.65 3.37 M-59.2 -5.98 C-66.41 -3.07, -73.28 -0.05, -87.29 4.27" stroke="#000000" stroke-width="1" fill="none"></path></g><g transform="translate(1179.5 416) rotate(0 -43.23168890438046 1.9670662480173746)"><path d="M-59.73 13.74 C-66.86 11.5, -73.46 8.41, -85.65 3.37 M-58.56 14.53 C-65.79 12.08, -72.82 9.75, -87.29 4.27" stroke="#000000" stroke-width="1" fill="none"></path></g></g><mask></mask></svg>